<?xml version="1.0" encoding="utf-8"?>
<!-- Generator: Adobe Illustrator 16.0.0, SVG Export Plug-In . SVG Version: 6.00 Build 0)  -->
<!DOCTYPE svg PUBLIC "-//W3C//DTD SVG 1.1//EN" "http://www.w3.org/Graphics/SVG/1.1/DTD/svg11.dtd">
<svg version="1.1" id="Layer_1" xmlns="http://www.w3.org/2000/svg" xmlns:xlink="http://www.w3.org/1999/xlink" x="0px" y="0px"
	 width="1000px" height="1000px" viewBox="0 0 1000 1000" enable-background="new 0 0 1000 1000" xml:space="preserve">
<path fill-rule="evenodd" clip-rule="evenodd" d="M530.219,517.186c2.216-2.036,4.282-4.27,6.676-6.071
	c34.953-26.336,74.089-41.693,117.663-47.031c33.063-4.051,66.006-4.396,99.065-1.751c6.584,0.526,13.142,2.29,19.545,4.072
	c26.279,7.312,35.365,24.596,26.339,50.417c-8.269,23.664-25.605,40.145-45.076,54.498c-42.332,31.225-89.996,52.521-138.008,73.098
	c-1.885,0.809-3.713,1.756-6.906,3.275c40.641,10.129,78.196,24.094,109.673,50.225c13.079,10.859,25.47,23.215,35.577,36.824
	c18.729,25.205,16.927,49.615-4.55,72.873c-28.345,30.691-63.249,51.531-102.946,64.246
	c-38.173,12.225-77.677,10.422-117.056,11.326c-63.567,1.467-121.435-19.656-179.16-42.189
	c-18.42-7.191-37.005-13.955-55.471-21.023c-3.126-1.195-6.039-2.951-8.878-7.088c6.378-1.035,12.72-2.551,19.141-3.021
	c43.46-3.176,83.907,7.656,123.907,24.059c34.479,14.139,70.288,25.148,105.883,36.35c7.464,2.348,16.984,0.996,24.834-1.211
	c36.231-10.205,67.874-29.059,95.323-54.596c32.506-30.238,34.409-59.783,6.483-94.166c-22.943-28.25-53.875-44.887-87.044-57.797
	c-3.486-1.357-8.31,0.082-12.358,0.938c-27.192,5.746-54.108,14.697-81.562,16.826c-37.819,2.934-76.125,2.381-114.062,0.344
	c-42.675-2.297-82.313-16.645-118.326-39.773c-46.93-30.139-62.639-77.643-44.446-130.415c11.646-33.777,34.21-59.449,61.382-80.905
	c44.245-34.937,89.767-68.25,134.416-102.68c39.292-30.299,78.212-61.086,117.083-91.923c6.109-4.847,11.282-10.938,16.588-16.731
	c15.47-16.895,23.114-36.588,21.246-59.755c-1.065-13.159-1.593-26.359-2.486-41.687c17.141,0,33.676,0,49.817,0
	c2.612,17.989,5.34,35.22,7.577,52.516c3.692,28.575-8.431,51.389-28.932,69.296c-27.146,23.71-55.295,46.343-83.833,68.373
	c-49.718,38.377-100.4,75.508-150.008,114.023c-25.753,19.996-49.274,42.514-64.372,72.308
	c-25.237,49.807-17.975,100.299,19.861,134.18c6.592,5.904,14.144,10.861,21.692,15.547c25.574,15.869,53.596,26.744,83.045,30.754
	c16.37,2.23,34.111-2.107,50.703-5.854c21.459-4.85,42.388-12.061,63.208-18.154c-34.032-9.697-67.418-18.203-100.043-29.008
	c-12.809-4.24-24.813-12.467-35.61-20.898c-22.011-17.186-28.159-40.857-18.215-67.119c12.872-33.999,35.555-61.398,63.38-83.649
	c29.459-23.557,61.513-43.836,91.672-66.555c15.834-11.922,30.856-25.209,44.609-39.454c6.324-6.55,8.424-17.053,13.059-25.422
	c1.933-3.49,5.326-8.501,8.31-8.686c14.633-0.9,29.359-0.407,44.111-0.407c-1.078,32.262-14.496,54.512-38.589,71.676
	c-31.345,22.337-62.452,45.105-92.527,69.111c-23.627,18.862-42.338,42.519-56.476,69.419
	c-19.679,37.435-12.347,64.841,23.157,87.905c24.833,16.131,53.204,22.449,81.402,29.18c1.554,0.373,3.569-0.201,5.112-0.904
	c45.313-20.645,90.567-41.518,129.024-73.973c17.189-14.508,31.262-31.678,34.472-55.04c0.796-5.826,0.255-12.277-1.438-17.91
	c-3.805-12.68-11.474-16.365-24.242-12.924c-23.59,6.357-45.268,16.881-64.883,31.283c-15.934,11.7-33.686,16.013-52.982,15.907
	c-14.444-0.075-28.894-0.013-43.338-0.013C531.026,520.56,530.625,518.871,530.219,517.186z"/>
</svg>
